<svg width="147" height="47" viewBox="0 0 147 47" fill="none" xmlns="http://www.w3.org/2000/svg">
<path d="M21.147 20.989H16.4808C16.3956 20.3854 16.2216 19.8491 15.9588 19.3804C15.696 18.9045 15.3587 18.4997 14.9467 18.1659C14.5348 17.8321 14.0589 17.5764 13.5192 17.3988C12.9865 17.2213 12.4077 17.1325 11.7827 17.1325C10.6534 17.1325 9.66974 17.413 8.83168 17.9741C7.99361 18.5281 7.34375 19.3378 6.8821 20.4031C6.42045 21.4613 6.18963 22.7469 6.18963 24.2596C6.18963 25.815 6.42045 27.1219 6.8821 28.1801C7.35085 29.2383 8.00426 30.0373 8.84233 30.5771C9.6804 31.1169 10.6499 31.3868 11.7507 31.3868C12.3686 31.3868 12.9403 31.3051 13.4659 31.1417C13.9986 30.9784 14.4709 30.7405 14.8828 30.428C15.2947 30.1084 15.6357 29.7213 15.9055 29.2667C16.1825 28.8122 16.3743 28.2937 16.4808 27.7113L21.147 27.7327C21.0263 28.7341 20.7244 29.7 20.2415 30.6304C19.7656 31.5537 19.1229 32.3811 18.3132 33.1126C17.5107 33.8371 16.5518 34.4123 15.4368 34.8385C14.3288 35.2575 13.0753 35.467 11.6761 35.467C9.73011 35.467 7.99006 35.0267 6.45597 34.146C4.92898 33.2653 3.72159 31.9905 2.83381 30.3214C1.95312 28.6524 1.51278 26.6318 1.51278 24.2596C1.51278 21.8804 1.96023 19.8562 2.85511 18.1872C3.75 16.5182 4.96449 15.2469 6.49858 14.3733C8.03267 13.4926 9.75852 13.0523 11.6761 13.0523C12.9403 13.0523 14.1122 13.2298 15.1918 13.5849C16.2784 13.94 17.2408 14.4585 18.0788 15.1403C18.9169 15.815 19.5987 16.6425 20.1243 17.6226C20.657 18.6027 20.9979 19.7248 21.147 20.989ZM24.3697 35.1687V18.8051H28.7695V21.6602H28.94C29.2383 20.6446 29.739 19.8775 30.4421 19.3591C31.1452 18.8335 31.9549 18.5707 32.8711 18.5707C33.0984 18.5707 33.3434 18.5849 33.6062 18.6133C33.869 18.6417 34.0998 18.6808 34.2987 18.7305V22.7575C34.0856 22.6936 33.7908 22.6368 33.4144 22.5871C33.038 22.5373 32.6935 22.5125 32.381 22.5125C31.7134 22.5125 31.1168 22.6581 30.5913 22.9493C30.0728 23.2334 29.6609 23.6311 29.3555 24.1425C29.0572 24.6538 28.908 25.2433 28.908 25.9109V35.1687H24.3697ZM39.945 41.3051C39.3697 41.3051 38.8299 41.2589 38.3256 41.1666C37.8285 41.0814 37.4165 40.9713 37.0898 40.8363L38.1126 37.4486C38.6452 37.6119 39.1246 37.7007 39.5508 37.7149C39.984 37.7291 40.3569 37.6297 40.6694 37.4166C40.989 37.2035 41.2482 36.8413 41.4471 36.33L41.7134 35.6375L35.8434 18.8051H40.6161L44.0039 30.8221H44.1744L47.5941 18.8051H52.3988L46.0387 36.9372C45.7333 37.8179 45.3178 38.5849 44.7923 39.2383C44.2738 39.8988 43.6168 40.4067 42.8214 40.7618C42.0259 41.124 41.0671 41.3051 39.945 41.3051ZM54.7212 41.3051V18.8051H59.1957V21.5537H59.3981C59.5969 21.1133 59.8846 20.6659 60.261 20.2113C60.6445 19.7497 61.1417 19.3662 61.7525 19.0608C62.3704 18.7483 63.1374 18.592 64.0536 18.592C65.2468 18.592 66.3477 18.9045 67.3562 19.5295C68.3647 20.1474 69.1708 21.0814 69.7745 22.3314C70.3782 23.5743 70.68 25.1332 70.68 27.0082C70.68 28.8335 70.3853 30.3747 69.7958 31.6318C69.2134 32.8818 68.418 33.83 67.4094 34.4763C66.408 35.1155 65.2859 35.4351 64.043 35.4351C63.1623 35.4351 62.413 35.2895 61.7951 34.9983C61.1843 34.7071 60.6836 34.3413 60.293 33.901C59.9023 33.4535 59.604 33.0025 59.3981 32.548H59.2596V41.3051H54.7212ZM59.1637 26.9869C59.1637 27.9599 59.2987 28.8086 59.5685 29.5331C59.8384 30.2575 60.229 30.8221 60.7404 31.227C61.2518 31.6247 61.8732 31.8236 62.6048 31.8236C63.3434 31.8236 63.9684 31.6211 64.4798 31.2163C64.9911 30.8044 65.3782 30.2362 65.641 29.5118C65.9109 28.7802 66.0458 27.9386 66.0458 26.9869C66.0458 26.0423 65.9144 25.2113 65.6516 24.494C65.3888 23.7767 65.0018 23.2156 64.4904 22.8108C63.979 22.4059 63.3505 22.2035 62.6048 22.2035C61.8661 22.2035 61.2411 22.3988 60.7298 22.7895C60.2255 23.1801 59.8384 23.7341 59.5685 24.4514C59.2987 25.1687 59.1637 26.0139 59.1637 26.9869ZM82.4094 18.8051V22.2142H72.555V18.8051H82.4094ZM74.7923 14.8846H79.3306V30.1403C79.3306 30.5594 79.3945 30.8861 79.5224 31.1204C79.6502 31.3477 79.8278 31.5075 80.055 31.5998C80.2894 31.6922 80.5593 31.7383 80.8647 31.7383C81.0778 31.7383 81.2908 31.7206 81.5039 31.6851C81.717 31.6425 81.8803 31.6105 81.994 31.5892L82.7077 34.9663C82.4805 35.0373 82.1609 35.119 81.7489 35.2113C81.337 35.3108 80.8363 35.3711 80.2468 35.3925C79.1531 35.4351 78.1942 35.2895 77.3704 34.9557C76.5536 34.6219 75.918 34.1034 75.4634 33.4003C75.0089 32.6971 74.7852 31.8094 74.7923 30.7369V14.8846ZM92.5835 35.4883C90.9286 35.4883 89.4975 35.1368 88.2901 34.4336C87.0898 33.7234 86.163 32.7362 85.5096 31.472C84.8562 30.2007 84.5295 28.727 84.5295 27.0508C84.5295 25.3605 84.8562 23.8832 85.5096 22.619C86.163 21.3477 87.0898 20.3605 88.2901 19.6574C89.4975 18.9471 90.9286 18.592 92.5835 18.592C94.2383 18.592 95.6658 18.9471 96.8661 19.6574C98.0735 20.3605 99.0039 21.3477 99.6573 22.619C100.311 23.8832 100.637 25.3605 100.637 27.0508C100.637 28.727 100.311 30.2007 99.6573 31.472C99.0039 32.7362 98.0735 33.7234 96.8661 34.4336C95.6658 35.1368 94.2383 35.4883 92.5835 35.4883ZM92.6048 31.9727C93.3576 31.9727 93.9862 31.7596 94.4904 31.3335C94.9947 30.9003 95.3746 30.3108 95.6303 29.565C95.8931 28.8193 96.0245 27.9706 96.0245 27.0189C96.0245 26.0672 95.8931 25.2184 95.6303 24.4727C95.3746 23.727 94.9947 23.1375 94.4904 22.7042C93.9862 22.271 93.3576 22.0544 92.6048 22.0544C91.8448 22.0544 91.2056 22.271 90.6871 22.7042C90.1758 23.1375 89.7887 23.727 89.5259 24.4727C89.2702 25.2184 89.1424 26.0672 89.1424 27.0189C89.1424 27.9706 89.2702 28.8193 89.5259 29.565C89.7887 30.3108 90.1758 30.9003 90.6871 31.3335C91.2056 31.7596 91.8448 31.9727 92.6048 31.9727Z" fill="white"/>
<rect x="114.237" y="1.86879" width="34.1521" height="34.1521" rx="17.076" transform="rotate(21.2534 114.237 1.86879)" fill="#FF705B"/>
<path d="M115.667 29.9549L115.467 14.7913L119.707 15.9811L119.204 25.1344L119.313 25.1651L124.001 17.1862L127.338 18.1226L127.183 27.4031L127.292 27.4338L131.633 19.3277L135.872 20.5175L127.812 33.3629L124.174 32.342L123.99 23.8514L123.88 23.8207L119.305 30.9757L115.667 29.9549Z" fill="white"/>
</svg>
