<svg xmlns="http://www.w3.org/2000/svg" xmlns:xlink="http://www.w3.org/1999/xlink" width="499" zoomAndPan="magnify" viewBox="0 0 374.25 73.499998" height="98" preserveAspectRatio="xMidYMid meet" version="1.0"><defs><g/><clipPath id="d550dfcf4f"><path d="M 1.039062 0 L 73.914062 0 L 73.914062 72.875 L 1.039062 72.875 Z M 1.039062 0 " clip-rule="nonzero"/></clipPath><clipPath id="0961875aa7"><path d="M 37.476562 0 C 17.351562 0 1.039062 16.3125 1.039062 36.4375 C 1.039062 56.5625 17.351562 72.875 37.476562 72.875 C 57.601562 72.875 73.914062 56.5625 73.914062 36.4375 C 73.914062 16.3125 57.601562 0 37.476562 0 Z M 37.476562 0 " clip-rule="nonzero"/></clipPath><linearGradient x1="0.00000000932855" gradientTransform="matrix(0.28467, 0, 0, 0.28467, 1.037938, -0)" y1="128" x2="256.000005" gradientUnits="userSpaceOnUse" y2="128" id="fc4d402dfe"><stop stop-opacity="1" stop-color="rgb(0%, 28.999329%, 67.799377%)" offset="0"/><stop stop-opacity="1" stop-color="rgb(0.309753%, 29.051208%, 67.886353%)" offset="0.00390625"/><stop stop-opacity="1" stop-color="rgb(0.621033%, 29.104614%, 67.974854%)" offset="0.0078125"/><stop stop-opacity="1" stop-color="rgb(0.932312%, 29.156494%, 68.061829%)" offset="0.0117188"/><stop stop-opacity="1" stop-color="rgb(1.243591%, 29.208374%, 68.148804%)" offset="0.015625"/><stop stop-opacity="1" stop-color="rgb(1.553345%, 29.260254%, 68.235779%)" offset="0.0195313"/><stop stop-opacity="1" stop-color="rgb(1.864624%, 29.31366%, 68.32428%)" offset="0.0234375"/><stop stop-opacity="1" stop-color="rgb(2.175903%, 29.36554%, 68.411255%)" offset="0.0273438"/><stop stop-opacity="1" stop-color="rgb(2.487183%, 29.417419%, 68.499756%)" offset="0.03125"/><stop stop-opacity="1" stop-color="rgb(2.796936%, 29.469299%, 68.586731%)" offset="0.0351563"/><stop stop-opacity="1" stop-color="rgb(3.108215%, 29.522705%, 68.673706%)" offset="0.0390625"/><stop stop-opacity="1" stop-color="rgb(3.419495%, 29.574585%, 68.760681%)" offset="0.0429688"/><stop stop-opacity="1" stop-color="rgb(3.730774%, 29.627991%, 68.849182%)" offset="0.046875"/><stop stop-opacity="1" stop-color="rgb(4.040527%, 29.679871%, 68.936157%)" offset="0.0507813"/><stop stop-opacity="1" stop-color="rgb(4.351807%, 29.73175%, 69.024658%)" offset="0.0546875"/><stop stop-opacity="1" stop-color="rgb(4.663086%, 29.78363%, 69.111633%)" offset="0.0585938"/><stop stop-opacity="1" stop-color="rgb(4.974365%, 29.837036%, 69.198608%)" offset="0.0625"/><stop stop-opacity="1" stop-color="rgb(5.284119%, 29.888916%, 69.285583%)" offset="0.0664062"/><stop stop-opacity="1" stop-color="rgb(5.595398%, 29.940796%, 69.374084%)" offset="0.0703125"/><stop stop-opacity="1" stop-color="rgb(5.906677%, 29.992676%, 69.46106%)" offset="0.0742188"/><stop stop-opacity="1" stop-color="rgb(6.217957%, 30.046082%, 69.549561%)" offset="0.078125"/><stop stop-opacity="1" stop-color="rgb(6.529236%, 30.097961%, 69.636536%)" offset="0.0820313"/><stop stop-opacity="1" stop-color="rgb(6.840515%, 30.151367%, 69.723511%)" offset="0.0859375"/><stop stop-opacity="1" stop-color="rgb(7.150269%, 30.203247%, 69.810486%)" offset="0.0898438"/><stop stop-opacity="1" stop-color="rgb(7.461548%, 30.255127%, 69.898987%)" offset="0.09375"/><stop stop-opacity="1" stop-color="rgb(7.772827%, 30.307007%, 69.985962%)" offset="0.0976563"/><stop stop-opacity="1" stop-color="rgb(8.084106%, 30.360413%, 70.074463%)" offset="0.101563"/><stop stop-opacity="1" stop-color="rgb(8.39386%, 30.412292%, 70.161438%)" offset="0.105469"/><stop stop-opacity="1" stop-color="rgb(8.705139%, 30.464172%, 70.249939%)" offset="0.109375"/><stop stop-opacity="1" stop-color="rgb(9.016418%, 30.516052%, 70.336914%)" offset="0.113281"/><stop stop-opacity="1" stop-color="rgb(9.327698%, 30.569458%, 70.423889%)" offset="0.117188"/><stop stop-opacity="1" stop-color="rgb(9.637451%, 30.621338%, 70.510864%)" offset="0.121094"/><stop stop-opacity="1" stop-color="rgb(9.94873%, 30.674744%, 70.599365%)" offset="0.125"/><stop stop-opacity="1" stop-color="rgb(10.26001%, 30.726624%, 70.68634%)" offset="0.128906"/><stop stop-opacity="1" stop-color="rgb(10.571289%, 30.778503%, 70.774841%)" offset="0.132812"/><stop stop-opacity="1" stop-color="rgb(10.881042%, 30.830383%, 70.861816%)" offset="0.136719"/><stop stop-opacity="1" stop-color="rgb(11.192322%, 30.883789%, 70.948792%)" offset="0.140625"/><stop stop-opacity="1" stop-color="rgb(11.503601%, 30.935669%, 71.035767%)" offset="0.144531"/><stop stop-opacity="1" stop-color="rgb(11.81488%, 30.987549%, 71.124268%)" offset="0.148438"/><stop stop-opacity="1" stop-color="rgb(12.12616%, 31.039429%, 71.211243%)" offset="0.152344"/><stop stop-opacity="1" stop-color="rgb(12.437439%, 31.092834%, 71.299744%)" offset="0.15625"/><stop stop-opacity="1" stop-color="rgb(12.747192%, 31.144714%, 71.386719%)" offset="0.160156"/><stop stop-opacity="1" stop-color="rgb(13.058472%, 31.19812%, 71.473694%)" offset="0.164063"/><stop stop-opacity="1" stop-color="rgb(13.369751%, 31.25%, 71.560669%)" offset="0.167969"/><stop stop-opacity="1" stop-color="rgb(13.68103%, 31.30188%, 71.64917%)" offset="0.171875"/><stop stop-opacity="1" stop-color="rgb(13.990784%, 31.35376%, 71.736145%)" offset="0.175781"/><stop stop-opacity="1" stop-color="rgb(14.302063%, 31.407166%, 71.824646%)" offset="0.179688"/><stop stop-opacity="1" stop-color="rgb(14.613342%, 31.459045%, 71.911621%)" offset="0.183594"/><stop stop-opacity="1" stop-color="rgb(14.924622%, 31.512451%, 71.998596%)" offset="0.1875"/><stop stop-opacity="1" stop-color="rgb(15.234375%, 31.564331%, 72.085571%)" offset="0.191406"/><stop stop-opacity="1" stop-color="rgb(15.545654%, 31.616211%, 72.174072%)" offset="0.195313"/><stop stop-opacity="1" stop-color="rgb(15.856934%, 31.668091%, 72.261047%)" offset="0.199219"/><stop stop-opacity="1" stop-color="rgb(16.168213%, 31.721497%, 72.349548%)" offset="0.203125"/><stop stop-opacity="1" stop-color="rgb(16.477966%, 31.773376%, 72.436523%)" offset="0.207031"/><stop stop-opacity="1" stop-color="rgb(16.789246%, 31.825256%, 72.523499%)" offset="0.210938"/><stop stop-opacity="1" stop-color="rgb(17.100525%, 31.877136%, 72.610474%)" offset="0.214844"/><stop stop-opacity="1" stop-color="rgb(17.411804%, 31.930542%, 72.698975%)" offset="0.21875"/><stop stop-opacity="1" stop-color="rgb(17.723083%, 31.982422%, 72.78595%)" offset="0.222656"/><stop stop-opacity="1" stop-color="rgb(18.034363%, 32.035828%, 72.874451%)" offset="0.226563"/><stop stop-opacity="1" stop-color="rgb(18.344116%, 32.087708%, 72.961426%)" offset="0.230469"/><stop stop-opacity="1" stop-color="rgb(18.655396%, 32.139587%, 73.049927%)" offset="0.234375"/><stop stop-opacity="1" stop-color="rgb(18.966675%, 32.191467%, 73.136902%)" offset="0.238281"/><stop stop-opacity="1" stop-color="rgb(19.277954%, 32.244873%, 73.223877%)" offset="0.242188"/><stop stop-opacity="1" stop-color="rgb(19.587708%, 32.296753%, 73.310852%)" offset="0.246094"/><stop stop-opacity="1" stop-color="rgb(19.898987%, 32.348633%, 73.399353%)" offset="0.25"/><stop stop-opacity="1" stop-color="rgb(20.210266%, 32.400513%, 73.486328%)" offset="0.253906"/><stop stop-opacity="1" stop-color="rgb(20.521545%, 32.453918%, 73.574829%)" offset="0.257813"/><stop stop-opacity="1" stop-color="rgb(20.831299%, 32.505798%, 73.661804%)" offset="0.261719"/><stop stop-opacity="1" stop-color="rgb(21.142578%, 32.559204%, 73.748779%)" offset="0.265625"/><stop stop-opacity="1" stop-color="rgb(21.453857%, 32.611084%, 73.835754%)" offset="0.269531"/><stop stop-opacity="1" stop-color="rgb(21.765137%, 32.662964%, 73.924255%)" offset="0.273438"/><stop stop-opacity="1" stop-color="rgb(22.07489%, 32.714844%, 74.01123%)" offset="0.277344"/><stop stop-opacity="1" stop-color="rgb(22.386169%, 32.76825%, 74.099731%)" offset="0.28125"/><stop stop-opacity="1" stop-color="rgb(22.697449%, 32.820129%, 74.186707%)" offset="0.285156"/><stop stop-opacity="1" stop-color="rgb(23.008728%, 32.872009%, 74.273682%)" offset="0.289063"/><stop stop-opacity="1" stop-color="rgb(23.318481%, 32.923889%, 74.360657%)" offset="0.292969"/><stop stop-opacity="1" stop-color="rgb(23.629761%, 32.977295%, 74.449158%)" offset="0.296875"/><stop stop-opacity="1" stop-color="rgb(23.94104%, 33.029175%, 74.536133%)" offset="0.300781"/><stop stop-opacity="1" stop-color="rgb(24.252319%, 33.082581%, 74.624634%)" offset="0.304688"/><stop stop-opacity="1" stop-color="rgb(24.563599%, 33.13446%, 74.711609%)" offset="0.308594"/><stop stop-opacity="1" stop-color="rgb(24.874878%, 33.18634%, 74.798584%)" offset="0.3125"/><stop stop-opacity="1" stop-color="rgb(25.184631%, 33.23822%, 74.885559%)" offset="0.316406"/><stop stop-opacity="1" stop-color="rgb(25.495911%, 33.291626%, 74.97406%)" offset="0.320313"/><stop stop-opacity="1" stop-color="rgb(25.80719%, 33.343506%, 75.061035%)" offset="0.324219"/><stop stop-opacity="1" stop-color="rgb(26.118469%, 33.395386%, 75.149536%)" offset="0.328125"/><stop stop-opacity="1" stop-color="rgb(26.428223%, 33.447266%, 75.236511%)" offset="0.332031"/><stop stop-opacity="1" stop-color="rgb(26.739502%, 33.500671%, 75.323486%)" offset="0.335938"/><stop stop-opacity="1" stop-color="rgb(27.050781%, 33.552551%, 75.410461%)" offset="0.339844"/><stop stop-opacity="1" stop-color="rgb(27.362061%, 33.605957%, 75.498962%)" offset="0.34375"/><stop stop-opacity="1" stop-color="rgb(27.671814%, 33.657837%, 75.585938%)" offset="0.347656"/><stop stop-opacity="1" stop-color="rgb(27.983093%, 33.709717%, 75.674438%)" offset="0.351563"/><stop stop-opacity="1" stop-color="rgb(28.294373%, 33.761597%, 75.761414%)" offset="0.355469"/><stop stop-opacity="1" stop-color="rgb(28.605652%, 33.815002%, 75.849915%)" offset="0.359375"/><stop stop-opacity="1" stop-color="rgb(28.915405%, 33.866882%, 75.93689%)" offset="0.363281"/><stop stop-opacity="1" stop-color="rgb(29.226685%, 33.920288%, 76.023865%)" offset="0.367188"/><stop stop-opacity="1" stop-color="rgb(29.537964%, 33.972168%, 76.11084%)" offset="0.371094"/><stop stop-opacity="1" stop-color="rgb(29.849243%, 34.024048%, 76.199341%)" offset="0.375"/><stop stop-opacity="1" stop-color="rgb(30.160522%, 34.075928%, 76.286316%)" offset="0.378906"/><stop stop-opacity="1" stop-color="rgb(30.471802%, 34.129333%, 76.374817%)" offset="0.382813"/><stop stop-opacity="1" stop-color="rgb(30.781555%, 34.181213%, 76.461792%)" offset="0.386719"/><stop stop-opacity="1" stop-color="rgb(31.092834%, 34.233093%, 76.548767%)" offset="0.390625"/><stop stop-opacity="1" stop-color="rgb(31.404114%, 34.284973%, 76.635742%)" offset="0.394531"/><stop stop-opacity="1" stop-color="rgb(31.715393%, 34.338379%, 76.724243%)" offset="0.398438"/><stop stop-opacity="1" stop-color="rgb(32.025146%, 34.390259%, 76.811218%)" offset="0.402344"/><stop stop-opacity="1" stop-color="rgb(32.336426%, 34.443665%, 76.899719%)" offset="0.40625"/><stop stop-opacity="1" stop-color="rgb(32.647705%, 34.495544%, 76.986694%)" offset="0.410156"/><stop stop-opacity="1" stop-color="rgb(32.958984%, 34.547424%, 77.073669%)" offset="0.414063"/><stop stop-opacity="1" stop-color="rgb(33.268738%, 34.599304%, 77.160645%)" offset="0.417969"/><stop stop-opacity="1" stop-color="rgb(33.580017%, 34.65271%, 77.249146%)" offset="0.421875"/><stop stop-opacity="1" stop-color="rgb(33.891296%, 34.70459%, 77.336121%)" offset="0.425781"/><stop stop-opacity="1" stop-color="rgb(34.202576%, 34.75647%, 77.424622%)" offset="0.429688"/><stop stop-opacity="1" stop-color="rgb(34.512329%, 34.80835%, 77.511597%)" offset="0.433594"/><stop stop-opacity="1" stop-color="rgb(34.823608%, 34.861755%, 77.598572%)" offset="0.4375"/><stop stop-opacity="1" stop-color="rgb(35.134888%, 34.913635%, 77.685547%)" offset="0.441406"/><stop stop-opacity="1" stop-color="rgb(35.446167%, 34.967041%, 77.774048%)" offset="0.445313"/><stop stop-opacity="1" stop-color="rgb(35.757446%, 35.018921%, 77.861023%)" offset="0.449219"/><stop stop-opacity="1" stop-color="rgb(36.068726%, 35.070801%, 77.949524%)" offset="0.453125"/><stop stop-opacity="1" stop-color="rgb(36.378479%, 35.122681%, 78.036499%)" offset="0.457031"/><stop stop-opacity="1" stop-color="rgb(36.689758%, 35.176086%, 78.125%)" offset="0.460938"/><stop stop-opacity="1" stop-color="rgb(37.001038%, 35.227966%, 78.211975%)" offset="0.464844"/><stop stop-opacity="1" stop-color="rgb(37.312317%, 35.279846%, 78.29895%)" offset="0.46875"/><stop stop-opacity="1" stop-color="rgb(37.62207%, 35.331726%, 78.385925%)" offset="0.472656"/><stop stop-opacity="1" stop-color="rgb(37.93335%, 35.385132%, 78.474426%)" offset="0.476563"/><stop stop-opacity="1" stop-color="rgb(38.244629%, 35.437012%, 78.561401%)" offset="0.480469"/><stop stop-opacity="1" stop-color="rgb(38.555908%, 35.490417%, 78.649902%)" offset="0.484375"/><stop stop-opacity="1" stop-color="rgb(38.865662%, 35.542297%, 78.736877%)" offset="0.488281"/><stop stop-opacity="1" stop-color="rgb(39.176941%, 35.594177%, 78.823853%)" offset="0.492188"/><stop stop-opacity="1" stop-color="rgb(39.48822%, 35.646057%, 78.910828%)" offset="0.496094"/><stop stop-opacity="1" stop-color="rgb(39.7995%, 35.699463%, 78.999329%)" offset="0.5"/><stop stop-opacity="1" stop-color="rgb(40.109253%, 35.751343%, 79.086304%)" offset="0.503906"/><stop stop-opacity="1" stop-color="rgb(40.420532%, 35.803223%, 79.174805%)" offset="0.507813"/><stop stop-opacity="1" stop-color="rgb(40.731812%, 35.855103%, 79.26178%)" offset="0.511719"/><stop stop-opacity="1" stop-color="rgb(41.043091%, 35.908508%, 79.348755%)" offset="0.515625"/><stop stop-opacity="1" stop-color="rgb(41.352844%, 35.960388%, 79.43573%)" offset="0.519531"/><stop stop-opacity="1" stop-color="rgb(41.664124%, 36.013794%, 79.524231%)" offset="0.523438"/><stop stop-opacity="1" stop-color="rgb(41.975403%, 36.065674%, 79.611206%)" offset="0.527344"/><stop stop-opacity="1" stop-color="rgb(42.286682%, 36.117554%, 79.699707%)" offset="0.53125"/><stop stop-opacity="1" stop-color="rgb(42.597961%, 36.169434%, 79.786682%)" offset="0.535156"/><stop stop-opacity="1" stop-color="rgb(42.909241%, 36.222839%, 79.873657%)" offset="0.539063"/><stop stop-opacity="1" stop-color="rgb(43.218994%, 36.274719%, 79.960632%)" offset="0.542969"/><stop stop-opacity="1" stop-color="rgb(43.530273%, 36.328125%, 80.049133%)" offset="0.546875"/><stop stop-opacity="1" stop-color="rgb(43.841553%, 36.380005%, 80.136108%)" offset="0.550781"/><stop stop-opacity="1" stop-color="rgb(44.152832%, 36.431885%, 80.224609%)" offset="0.554688"/><stop stop-opacity="1" stop-color="rgb(44.462585%, 36.483765%, 80.311584%)" offset="0.558594"/><stop stop-opacity="1" stop-color="rgb(44.773865%, 36.53717%, 80.39856%)" offset="0.5625"/><stop stop-opacity="1" stop-color="rgb(45.085144%, 36.58905%, 80.485535%)" offset="0.566406"/><stop stop-opacity="1" stop-color="rgb(45.396423%, 36.64093%, 80.574036%)" offset="0.570313"/><stop stop-opacity="1" stop-color="rgb(45.706177%, 36.69281%, 80.661011%)" offset="0.574219"/><stop stop-opacity="1" stop-color="rgb(46.017456%, 36.746216%, 80.749512%)" offset="0.578125"/><stop stop-opacity="1" stop-color="rgb(46.328735%, 36.798096%, 80.836487%)" offset="0.582031"/><stop stop-opacity="1" stop-color="rgb(46.640015%, 36.851501%, 80.924988%)" offset="0.585938"/><stop stop-opacity="1" stop-color="rgb(46.949768%, 36.903381%, 81.011963%)" offset="0.589844"/><stop stop-opacity="1" stop-color="rgb(47.261047%, 36.955261%, 81.098938%)" offset="0.59375"/><stop stop-opacity="1" stop-color="rgb(47.572327%, 37.007141%, 81.185913%)" offset="0.597656"/><stop stop-opacity="1" stop-color="rgb(47.883606%, 37.060547%, 81.274414%)" offset="0.601562"/><stop stop-opacity="1" stop-color="rgb(48.194885%, 37.112427%, 81.361389%)" offset="0.605469"/><stop stop-opacity="1" stop-color="rgb(48.506165%, 37.164307%, 81.44989%)" offset="0.609375"/><stop stop-opacity="1" stop-color="rgb(48.815918%, 37.216187%, 81.536865%)" offset="0.613281"/><stop stop-opacity="1" stop-color="rgb(49.127197%, 37.269592%, 81.62384%)" offset="0.617188"/><stop stop-opacity="1" stop-color="rgb(49.438477%, 37.321472%, 81.710815%)" offset="0.621094"/><stop stop-opacity="1" stop-color="rgb(49.749756%, 37.374878%, 81.799316%)" offset="0.625"/><stop stop-opacity="1" stop-color="rgb(50.059509%, 37.426758%, 81.886292%)" offset="0.628906"/><stop stop-opacity="1" stop-color="rgb(50.370789%, 37.478638%, 81.974792%)" offset="0.632812"/><stop stop-opacity="1" stop-color="rgb(50.682068%, 37.530518%, 82.061768%)" offset="0.636719"/><stop stop-opacity="1" stop-color="rgb(50.993347%, 37.583923%, 82.148743%)" offset="0.640625"/><stop stop-opacity="1" stop-color="rgb(51.303101%, 37.635803%, 82.235718%)" offset="0.644531"/><stop stop-opacity="1" stop-color="rgb(51.61438%, 37.687683%, 82.324219%)" offset="0.648438"/><stop stop-opacity="1" stop-color="rgb(51.925659%, 37.739563%, 82.411194%)" offset="0.652344"/><stop stop-opacity="1" stop-color="rgb(52.236938%, 37.792969%, 82.499695%)" offset="0.65625"/><stop stop-opacity="1" stop-color="rgb(52.546692%, 37.844849%, 82.58667%)" offset="0.660156"/><stop stop-opacity="1" stop-color="rgb(52.857971%, 37.898254%, 82.673645%)" offset="0.664062"/><stop stop-opacity="1" stop-color="rgb(53.16925%, 37.950134%, 82.76062%)" offset="0.667969"/><stop stop-opacity="1" stop-color="rgb(53.48053%, 38.002014%, 82.849121%)" offset="0.671875"/><stop stop-opacity="1" stop-color="rgb(53.791809%, 38.053894%, 82.936096%)" offset="0.675781"/><stop stop-opacity="1" stop-color="rgb(54.103088%, 38.1073%, 83.024597%)" offset="0.679688"/><stop stop-opacity="1" stop-color="rgb(54.412842%, 38.15918%, 83.111572%)" offset="0.683594"/><stop stop-opacity="1" stop-color="rgb(54.724121%, 38.21106%, 83.198547%)" offset="0.6875"/><stop stop-opacity="1" stop-color="rgb(55.0354%, 38.262939%, 83.285522%)" offset="0.691406"/><stop stop-opacity="1" stop-color="rgb(55.34668%, 38.316345%, 83.374023%)" offset="0.695313"/><stop stop-opacity="1" stop-color="rgb(55.656433%, 38.368225%, 83.460999%)" offset="0.699219"/><stop stop-opacity="1" stop-color="rgb(55.967712%, 38.421631%, 83.5495%)" offset="0.703125"/><stop stop-opacity="1" stop-color="rgb(56.278992%, 38.473511%, 83.636475%)" offset="0.707031"/><stop stop-opacity="1" stop-color="rgb(56.590271%, 38.525391%, 83.724976%)" offset="0.710938"/><stop stop-opacity="1" stop-color="rgb(56.900024%, 38.577271%, 83.811951%)" offset="0.714844"/><stop stop-opacity="1" stop-color="rgb(57.211304%, 38.630676%, 83.898926%)" offset="0.71875"/><stop stop-opacity="1" stop-color="rgb(57.522583%, 38.682556%, 83.985901%)" offset="0.722656"/><stop stop-opacity="1" stop-color="rgb(57.833862%, 38.734436%, 84.074402%)" offset="0.726563"/><stop stop-opacity="1" stop-color="rgb(58.143616%, 38.786316%, 84.161377%)" offset="0.730469"/><stop stop-opacity="1" stop-color="rgb(58.454895%, 38.839722%, 84.249878%)" offset="0.734375"/><stop stop-opacity="1" stop-color="rgb(58.766174%, 38.891602%, 84.336853%)" offset="0.738281"/><stop stop-opacity="1" stop-color="rgb(59.077454%, 38.945007%, 84.423828%)" offset="0.742188"/><stop stop-opacity="1" stop-color="rgb(59.387207%, 38.996887%, 84.510803%)" offset="0.746094"/><stop stop-opacity="1" stop-color="rgb(59.698486%, 39.048767%, 84.599304%)" offset="0.75"/><stop stop-opacity="1" stop-color="rgb(60.009766%, 39.100647%, 84.686279%)" offset="0.753906"/><stop stop-opacity="1" stop-color="rgb(60.321045%, 39.154053%, 84.77478%)" offset="0.757813"/><stop stop-opacity="1" stop-color="rgb(60.632324%, 39.205933%, 84.861755%)" offset="0.761719"/><stop stop-opacity="1" stop-color="rgb(60.943604%, 39.259338%, 84.94873%)" offset="0.765625"/><stop stop-opacity="1" stop-color="rgb(61.253357%, 39.311218%, 85.035706%)" offset="0.769531"/><stop stop-opacity="1" stop-color="rgb(61.564636%, 39.363098%, 85.124207%)" offset="0.773438"/><stop stop-opacity="1" stop-color="rgb(61.875916%, 39.414978%, 85.211182%)" offset="0.777344"/><stop stop-opacity="1" stop-color="rgb(62.187195%, 39.468384%, 85.299683%)" offset="0.78125"/><stop stop-opacity="1" stop-color="rgb(62.496948%, 39.520264%, 85.386658%)" offset="0.785156"/><stop stop-opacity="1" stop-color="rgb(62.808228%, 39.572144%, 85.473633%)" offset="0.789062"/><stop stop-opacity="1" stop-color="rgb(63.119507%, 39.624023%, 85.560608%)" offset="0.792969"/><stop stop-opacity="1" stop-color="rgb(63.430786%, 39.677429%, 85.649109%)" offset="0.796875"/><stop stop-opacity="1" stop-color="rgb(63.74054%, 39.729309%, 85.736084%)" offset="0.800781"/><stop stop-opacity="1" stop-color="rgb(64.051819%, 39.782715%, 85.824585%)" offset="0.804688"/><stop stop-opacity="1" stop-color="rgb(64.363098%, 39.834595%, 85.91156%)" offset="0.808594"/><stop stop-opacity="1" stop-color="rgb(64.674377%, 39.886475%, 85.998535%)" offset="0.8125"/><stop stop-opacity="1" stop-color="rgb(64.984131%, 39.938354%, 86.08551%)" offset="0.816406"/><stop stop-opacity="1" stop-color="rgb(65.29541%, 39.99176%, 86.174011%)" offset="0.820312"/><stop stop-opacity="1" stop-color="rgb(65.606689%, 40.04364%, 86.260986%)" offset="0.824219"/><stop stop-opacity="1" stop-color="rgb(65.917969%, 40.09552%, 86.349487%)" offset="0.828125"/><stop stop-opacity="1" stop-color="rgb(66.229248%, 40.1474%, 86.436462%)" offset="0.832031"/><stop stop-opacity="1" stop-color="rgb(66.540527%, 40.200806%, 86.524963%)" offset="0.835938"/><stop stop-opacity="1" stop-color="rgb(66.850281%, 40.252686%, 86.611938%)" offset="0.839844"/><stop stop-opacity="1" stop-color="rgb(67.16156%, 40.306091%, 86.698914%)" offset="0.84375"/><stop stop-opacity="1" stop-color="rgb(67.472839%, 40.357971%, 86.785889%)" offset="0.847656"/><stop stop-opacity="1" stop-color="rgb(67.784119%, 40.409851%, 86.87439%)" offset="0.851563"/><stop stop-opacity="1" stop-color="rgb(68.093872%, 40.461731%, 86.961365%)" offset="0.855469"/><stop stop-opacity="1" stop-color="rgb(68.405151%, 40.515137%, 87.049866%)" offset="0.859375"/><stop stop-opacity="1" stop-color="rgb(68.716431%, 40.567017%, 87.136841%)" offset="0.863281"/><stop stop-opacity="1" stop-color="rgb(69.02771%, 40.618896%, 87.223816%)" offset="0.867188"/><stop stop-opacity="1" stop-color="rgb(69.337463%, 40.670776%, 87.310791%)" offset="0.871094"/><stop stop-opacity="1" stop-color="rgb(69.648743%, 40.724182%, 87.399292%)" offset="0.875"/><stop stop-opacity="1" stop-color="rgb(69.960022%, 40.776062%, 87.486267%)" offset="0.878906"/><stop stop-opacity="1" stop-color="rgb(70.271301%, 40.829468%, 87.574768%)" offset="0.882813"/><stop stop-opacity="1" stop-color="rgb(70.581055%, 40.881348%, 87.661743%)" offset="0.886719"/><stop stop-opacity="1" stop-color="rgb(70.892334%, 40.933228%, 87.748718%)" offset="0.890625"/><stop stop-opacity="1" stop-color="rgb(71.203613%, 40.985107%, 87.835693%)" offset="0.894531"/><stop stop-opacity="1" stop-color="rgb(71.514893%, 41.038513%, 87.924194%)" offset="0.898438"/><stop stop-opacity="1" stop-color="rgb(71.826172%, 41.090393%, 88.011169%)" offset="0.902344"/><stop stop-opacity="1" stop-color="rgb(72.137451%, 41.142273%, 88.09967%)" offset="0.90625"/><stop stop-opacity="1" stop-color="rgb(72.447205%, 41.194153%, 88.186646%)" offset="0.910156"/><stop stop-opacity="1" stop-color="rgb(72.758484%, 41.247559%, 88.273621%)" offset="0.914063"/><stop stop-opacity="1" stop-color="rgb(73.069763%, 41.299438%, 88.360596%)" offset="0.917969"/><stop stop-opacity="1" stop-color="rgb(73.381042%, 41.352844%, 88.449097%)" offset="0.921875"/><stop stop-opacity="1" stop-color="rgb(73.690796%, 41.404724%, 88.536072%)" offset="0.925781"/><stop stop-opacity="1" stop-color="rgb(74.002075%, 41.456604%, 88.624573%)" offset="0.929688"/><stop stop-opacity="1" stop-color="rgb(74.313354%, 41.508484%, 88.711548%)" offset="0.933594"/><stop stop-opacity="1" stop-color="rgb(74.624634%, 41.56189%, 88.798523%)" offset="0.9375"/><stop stop-opacity="1" stop-color="rgb(74.934387%, 41.61377%, 88.885498%)" offset="0.941406"/><stop stop-opacity="1" stop-color="rgb(75.245667%, 41.667175%, 88.973999%)" offset="0.945313"/><stop stop-opacity="1" stop-color="rgb(75.556946%, 41.719055%, 89.060974%)" offset="0.949219"/><stop stop-opacity="1" stop-color="rgb(75.868225%, 41.770935%, 89.149475%)" offset="0.953125"/><stop stop-opacity="1" stop-color="rgb(76.177979%, 41.822815%, 89.23645%)" offset="0.957031"/><stop stop-opacity="1" stop-color="rgb(76.489258%, 41.876221%, 89.324951%)" offset="0.960938"/><stop stop-opacity="1" stop-color="rgb(76.800537%, 41.928101%, 89.411926%)" offset="0.964844"/><stop stop-opacity="1" stop-color="rgb(77.111816%, 41.97998%, 89.498901%)" offset="0.96875"/><stop stop-opacity="1" stop-color="rgb(77.423096%, 42.03186%, 89.585876%)" offset="0.972656"/><stop stop-opacity="1" stop-color="rgb(77.734375%, 42.085266%, 89.674377%)" offset="0.976562"/><stop stop-opacity="1" stop-color="rgb(78.044128%, 42.137146%, 89.761353%)" offset="0.980469"/><stop stop-opacity="1" stop-color="rgb(78.355408%, 42.190552%, 89.849854%)" offset="0.984375"/><stop stop-opacity="1" stop-color="rgb(78.666687%, 42.242432%, 89.936829%)" offset="0.988281"/><stop stop-opacity="1" stop-color="rgb(78.977966%, 42.294312%, 90.023804%)" offset="0.992188"/><stop stop-opacity="1" stop-color="rgb(79.28772%, 42.346191%, 90.110779%)" offset="0.996094"/><stop stop-opacity="1" stop-color="rgb(79.598999%, 42.399597%, 90.19928%)" offset="1"/></linearGradient></defs><g fill="#ffffff" fill-opacity="1"><g transform="translate(77.900285, 53.939341)"><g><path d="M 35.671875 0 L 22.875 0 L 16.34375 -13.296875 L 13.296875 -8.953125 L 13.296875 0 L 2.140625 0 L 2.140625 -33.34375 L 13.296875 -33.34375 L 13.296875 -20.546875 L 21.6875 -33.34375 L 35.265625 -33.34375 L 25.671875 -19.6875 Z M 35.671875 0 "/></g></g></g><g fill="#ffffff" fill-opacity="1"><g transform="translate(113.115064, 53.939341)"><g><path d="M 14.296875 -10.375 L 17.71875 -24.203125 L 28.765625 -24.203125 L 21.734375 -2.65625 C 20.796875 0.332031 19.703125 2.75 18.453125 4.59375 C 17.203125 6.4375 15.691406 7.773438 13.921875 8.609375 C 12.160156 9.441406 9.972656 9.859375 7.359375 9.859375 C 6.046875 9.859375 4.851562 9.78125 3.78125 9.625 C 2.71875 9.476562 1.867188 9.332031 1.234375 9.1875 L 1.234375 1 C 2.359375 1.15625 3.363281 1.234375 4.25 1.234375 C 5.1875 1.234375 5.882812 1.070312 6.34375 0.75 C 6.800781 0.4375 7.179688 -0.128906 7.484375 -0.953125 L -0.828125 -24.203125 L 10.78125 -24.203125 Z M 14.296875 -10.375 "/></g></g></g><g fill="#ffffff" fill-opacity="1"><g transform="translate(141.067644, 53.939341)"><g><path d="M 13.296875 -33.34375 L 13.296875 0 L 2.09375 0 L 2.09375 -33.34375 Z M 13.296875 -33.34375 "/></g></g></g><g fill="#ffffff" fill-opacity="1"><g transform="translate(156.459829, 53.939341)"><g><path d="M 29.234375 -13.65625 C 29.234375 -13.050781 29.21875 -12.492188 29.1875 -11.984375 C 29.15625 -11.484375 29.109375 -10.972656 29.046875 -10.453125 L 11.46875 -10.453125 C 11.613281 -9.148438 11.972656 -8.242188 12.546875 -7.734375 C 13.128906 -7.234375 13.863281 -6.984375 14.75 -6.984375 C 15.632812 -6.984375 16.296875 -7.132812 16.734375 -7.4375 C 17.179688 -7.75 17.507812 -8.144531 17.71875 -8.625 L 28.90625 -8.625 C 28.726562 -6.925781 28.128906 -5.359375 27.109375 -3.921875 C 26.085938 -2.492188 24.59375 -1.351562 22.625 -0.5 C 20.664062 0.351562 18.164062 0.78125 15.125 0.78125 C 12.039062 0.78125 9.441406 0.265625 7.328125 -0.765625 C 5.210938 -1.804688 3.609375 -3.253906 2.515625 -5.109375 C 1.421875 -6.972656 0.875 -9.109375 0.875 -11.515625 L 0.875 -12.703125 C 0.875 -15.128906 1.421875 -17.265625 2.515625 -19.109375 C 3.609375 -20.953125 5.226562 -22.390625 7.375 -23.421875 C 9.519531 -24.460938 12.144531 -24.984375 15.25 -24.984375 C 18.300781 -24.984375 20.859375 -24.488281 22.921875 -23.5 C 24.992188 -22.507812 26.5625 -21.160156 27.625 -19.453125 C 28.695312 -17.753906 29.234375 -15.820312 29.234375 -13.65625 Z M 15.03125 -17.578125 C 14.082031 -17.578125 13.328125 -17.363281 12.765625 -16.9375 C 12.203125 -16.519531 11.800781 -15.757812 11.5625 -14.65625 L 18.265625 -14.65625 C 18.148438 -15.726562 17.816406 -16.484375 17.265625 -16.921875 C 16.710938 -17.359375 15.96875 -17.578125 15.03125 -17.578125 Z M 15.03125 -17.578125 "/></g></g></g><g fill="#ffffff" fill-opacity="1"><g transform="translate(186.5591, 53.939341)"><g><path d="M 0.875 -15.671875 L 0.875 -17.671875 C 0.875 -21.023438 1.554688 -23.925781 2.921875 -26.375 C 4.296875 -28.820312 6.269531 -30.722656 8.84375 -32.078125 C 11.414062 -33.429688 14.484375 -34.109375 18.046875 -34.109375 C 23.210938 -34.109375 27.242188 -32.769531 30.140625 -30.09375 C 33.035156 -27.414062 34.632812 -23.671875 34.9375 -18.859375 L 23.0625 -18.859375 C 22.851562 -20.742188 22.328125 -22.101562 21.484375 -22.9375 C 20.648438 -23.78125 19.488281 -24.203125 18 -24.203125 C 16.382812 -24.203125 15.085938 -23.660156 14.109375 -22.578125 C 13.140625 -21.503906 12.65625 -19.796875 12.65625 -17.453125 L 12.65625 -15.890625 C 12.65625 -13.578125 13.140625 -11.875 14.109375 -10.78125 C 15.085938 -9.6875 16.382812 -9.140625 18 -9.140625 C 19.488281 -9.140625 20.648438 -9.554688 21.484375 -10.390625 C 22.328125 -11.222656 22.851562 -12.585938 23.0625 -14.484375 L 34.9375 -14.484375 C 34.632812 -9.703125 33.035156 -5.960938 30.140625 -3.265625 C 27.242188 -0.566406 23.210938 0.78125 18.046875 0.78125 C 14.484375 0.78125 11.414062 0.101562 8.84375 -1.25 C 6.269531 -2.601562 4.296875 -4.515625 2.921875 -6.984375 C 1.554688 -9.453125 0.875 -12.347656 0.875 -15.671875 Z M 0.875 -15.671875 "/></g></g></g><g fill="#ffffff" fill-opacity="1"><g transform="translate(222.321963, 53.939341)"><g><path d="M 17.90625 -24.984375 C 18.664062 -24.984375 19.328125 -24.925781 19.890625 -24.8125 C 20.453125 -24.707031 20.898438 -24.613281 21.234375 -24.53125 L 21.234375 -12.921875 C 20.742188 -12.984375 20.179688 -13.03125 19.546875 -13.0625 C 18.910156 -13.09375 18.210938 -13.109375 17.453125 -13.109375 C 15.867188 -13.109375 14.785156 -12.75 14.203125 -12.03125 C 13.628906 -11.320312 13.34375 -10.019531 13.34375 -8.125 L 13.34375 0 L 2.0625 0 L 2.0625 -24.203125 L 7.4375 -24.203125 L 11.1875 -16.671875 C 11.519531 -18.804688 12.003906 -20.472656 12.640625 -21.671875 C 13.285156 -22.867188 14.0625 -23.71875 14.96875 -24.21875 C 15.882812 -24.726562 16.863281 -24.984375 17.90625 -24.984375 Z M 17.90625 -24.984375 "/></g></g></g><g fill="#ffffff" fill-opacity="1"><g transform="translate(244.245564, 53.939341)"><g><path d="M 14.296875 -10.375 L 17.71875 -24.203125 L 28.765625 -24.203125 L 21.734375 -2.65625 C 20.796875 0.332031 19.703125 2.75 18.453125 4.59375 C 17.203125 6.4375 15.691406 7.773438 13.921875 8.609375 C 12.160156 9.441406 9.972656 9.859375 7.359375 9.859375 C 6.046875 9.859375 4.851562 9.78125 3.78125 9.625 C 2.71875 9.476562 1.867188 9.332031 1.234375 9.1875 L 1.234375 1 C 2.359375 1.15625 3.363281 1.234375 4.25 1.234375 C 5.1875 1.234375 5.882812 1.070312 6.34375 0.75 C 6.800781 0.4375 7.179688 -0.128906 7.484375 -0.953125 L -0.828125 -24.203125 L 10.78125 -24.203125 Z M 14.296875 -10.375 "/></g></g></g><g fill="#ffffff" fill-opacity="1"><g transform="translate(272.198144, 53.939341)"><g><path d="M 20.421875 -24.984375 C 22.304688 -24.984375 24.023438 -24.492188 25.578125 -23.515625 C 27.128906 -22.546875 28.359375 -21.144531 29.265625 -19.3125 C 30.179688 -17.488281 30.640625 -15.285156 30.640625 -12.703125 L 30.640625 -11.515625 C 30.640625 -8.953125 30.179688 -6.75 29.265625 -4.90625 C 28.359375 -3.0625 27.160156 -1.648438 25.671875 -0.671875 C 24.179688 0.296875 22.535156 0.78125 20.734375 0.78125 C 19.054688 0.78125 17.546875 0.351562 16.203125 -0.5 C 14.867188 -1.351562 13.804688 -2.617188 13.015625 -4.296875 L 13.015625 9.140625 L 2.0625 9.140625 L 2.0625 -24.203125 L 7.484375 -24.203125 L 10.875 -16.8125 C 11.476562 -19.519531 12.617188 -21.554688 14.296875 -22.921875 C 15.972656 -24.296875 18.015625 -24.984375 20.421875 -24.984375 Z M 16.34375 -7.953125 C 17.382812 -7.953125 18.203125 -8.273438 18.796875 -8.921875 C 19.390625 -9.578125 19.6875 -10.640625 19.6875 -12.109375 C 19.6875 -13.566406 19.390625 -14.625 18.796875 -15.28125 C 18.203125 -15.9375 17.382812 -16.265625 16.34375 -16.265625 C 15.34375 -16.265625 14.535156 -15.925781 13.921875 -15.25 C 13.316406 -14.582031 13.015625 -13.535156 13.015625 -12.109375 C 13.015625 -10.671875 13.316406 -9.617188 13.921875 -8.953125 C 14.535156 -8.285156 15.34375 -7.953125 16.34375 -7.953125 Z M 16.34375 -7.953125 "/></g></g></g><g fill="#ffffff" fill-opacity="1"><g transform="translate(303.713311, 53.939341)"><g><path d="M 24.65625 -24.203125 L 24.65625 -15.484375 L 16.21875 -15.484375 L 16.21875 -11.6875 C 16.21875 -10.6875 16.304688 -9.925781 16.484375 -9.40625 C 16.671875 -8.882812 17.035156 -8.53125 17.578125 -8.34375 C 18.128906 -8.164062 18.9375 -8.078125 20 -8.078125 C 20.976562 -8.078125 21.863281 -8.128906 22.65625 -8.234375 C 23.445312 -8.347656 24.128906 -8.46875 24.703125 -8.59375 L 24.703125 0 C 24.035156 0.15625 23.0625 0.320312 21.78125 0.5 C 20.507812 0.6875 19.066406 0.78125 17.453125 0.78125 C 13.148438 0.78125 10.078125 -0.0976562 8.234375 -1.859375 C 6.398438 -3.628906 5.484375 -6.375 5.484375 -10.09375 L 5.484375 -15.484375 L 0.59375 -15.484375 L 0.59375 -24.203125 L 5.84375 -24.203125 L 9.5 -31.375 L 16.21875 -31.375 L 16.21875 -24.203125 Z M 24.65625 -24.203125 "/></g></g></g><g fill="#ffffff" fill-opacity="1"><g transform="translate(329.838926, 53.939341)"><g><path d="M 15.203125 0.78125 C 12.097656 0.78125 9.476562 0.265625 7.34375 -0.765625 C 5.21875 -1.804688 3.609375 -3.253906 2.515625 -5.109375 C 1.421875 -6.972656 0.875 -9.109375 0.875 -11.515625 L 0.875 -12.703125 C 0.875 -15.128906 1.421875 -17.265625 2.515625 -19.109375 C 3.609375 -20.953125 5.21875 -22.390625 7.34375 -23.421875 C 9.476562 -24.460938 12.097656 -24.984375 15.203125 -24.984375 C 18.316406 -24.984375 20.929688 -24.460938 23.046875 -23.421875 C 25.160156 -22.390625 26.765625 -20.953125 27.859375 -19.109375 C 28.953125 -17.265625 29.5 -15.128906 29.5 -12.703125 L 29.5 -11.515625 C 29.5 -9.109375 28.953125 -6.972656 27.859375 -5.109375 C 26.765625 -3.253906 25.160156 -1.804688 23.046875 -0.765625 C 20.929688 0.265625 18.316406 0.78125 15.203125 0.78125 Z M 15.203125 -7.765625 C 16.242188 -7.765625 17.0625 -8.097656 17.65625 -8.765625 C 18.25 -9.441406 18.546875 -10.570312 18.546875 -12.15625 C 18.546875 -13.675781 18.25 -14.769531 17.65625 -15.4375 C 17.0625 -16.101562 16.242188 -16.4375 15.203125 -16.4375 C 14.171875 -16.4375 13.347656 -16.101562 12.734375 -15.4375 C 12.128906 -14.769531 11.828125 -13.675781 11.828125 -12.15625 C 11.828125 -10.570312 12.128906 -9.441406 12.734375 -8.765625 C 13.347656 -8.097656 14.171875 -7.765625 15.203125 -7.765625 Z M 15.203125 -7.765625 "/></g></g></g><g clip-path="url(#d550dfcf4f)"><g clip-path="url(#0961875aa7)"><path fill="url(#fc4d402dfe)" d="M 1.039062 0 L 1.039062 72.875 L 73.914062 72.875 L 73.914062 0 Z M 1.039062 0 " fill-rule="nonzero"/></g></g><g fill="#ff00ff" fill-opacity="1"><g transform="translate(9.008724, 55.843519)"><g><path d="M 19.515625 -9.859375 C 20.96875 -9.859375 21.890625 -9.8125 21.890625 -8.296875 L 21.890625 0 L 28.296875 0 L 28.296875 -8.671875 C 28.296875 -10.625 28.296875 -12.34375 26.6875 -12.890625 C 28.296875 -13.421875 28.296875 -15.140625 28.296875 -17.09375 L 28.296875 -25.765625 L 21.890625 -25.765625 L 21.890625 -17.515625 C 21.890625 -16.015625 20.96875 -15.953125 19.515625 -15.953125 L 8.953125 -15.953125 L 8.953125 -35.953125 L 2.53125 -35.953125 L 2.53125 0 L 8.953125 0 L 8.953125 -9.859375 Z M 19.515625 -9.859375 "/></g></g></g><g fill="#00ffff" fill-opacity="1"><g transform="translate(6.987291, 55.843519)"><g><path d="M 19.515625 -9.859375 C 20.96875 -9.859375 21.890625 -9.8125 21.890625 -8.296875 L 21.890625 0 L 28.296875 0 L 28.296875 -8.671875 C 28.296875 -10.625 28.296875 -12.34375 26.6875 -12.890625 C 28.296875 -13.421875 28.296875 -15.140625 28.296875 -17.09375 L 28.296875 -25.765625 L 21.890625 -25.765625 L 21.890625 -17.515625 C 21.890625 -16.015625 20.96875 -15.953125 19.515625 -15.953125 L 8.953125 -15.953125 L 8.953125 -35.953125 L 2.53125 -35.953125 L 2.53125 0 L 8.953125 0 L 8.953125 -9.859375 Z M 19.515625 -9.859375 "/></g></g></g><g fill="#ffffff" fill-opacity="1"><g transform="translate(7.998007, 55.843519)"><g><path d="M 19.515625 -9.859375 C 20.96875 -9.859375 21.890625 -9.8125 21.890625 -8.296875 L 21.890625 0 L 28.296875 0 L 28.296875 -8.671875 C 28.296875 -10.625 28.296875 -12.34375 26.6875 -12.890625 C 28.296875 -13.421875 28.296875 -15.140625 28.296875 -17.09375 L 28.296875 -25.765625 L 21.890625 -25.765625 L 21.890625 -17.515625 C 21.890625 -16.015625 20.96875 -15.953125 19.515625 -15.953125 L 8.953125 -15.953125 L 8.953125 -35.953125 L 2.53125 -35.953125 L 2.53125 0 L 8.953125 0 L 8.953125 -9.859375 Z M 19.515625 -9.859375 "/></g></g></g><g fill="#ff00ff" fill-opacity="1"><g transform="translate(38.617525, 55.843559)"><g><path d="M 28.03125 -6.09375 L 11.046875 -6.09375 C 9.59375 -6.09375 8.671875 -6.140625 8.671875 -7.65625 L 8.671875 -18.109375 C 8.671875 -19.625 9.59375 -19.671875 11.046875 -19.671875 L 28.03125 -19.671875 L 28.03125 -25.765625 L 8.734375 -25.765625 C 5.390625 -25.765625 2.265625 -25.4375 2.265625 -20.921875 L 2.265625 -4.84375 C 2.265625 -0.328125 5.390625 0 8.734375 0 L 28.03125 0 Z M 28.03125 -6.09375 "/></g></g></g><g fill="#00ffff" fill-opacity="1"><g transform="translate(36.596081, 55.843559)"><g><path d="M 28.03125 -6.09375 L 11.046875 -6.09375 C 9.59375 -6.09375 8.671875 -6.140625 8.671875 -7.65625 L 8.671875 -18.109375 C 8.671875 -19.625 9.59375 -19.671875 11.046875 -19.671875 L 28.03125 -19.671875 L 28.03125 -25.765625 L 8.734375 -25.765625 C 5.390625 -25.765625 2.265625 -25.4375 2.265625 -20.921875 L 2.265625 -4.84375 C 2.265625 -0.328125 5.390625 0 8.734375 0 L 28.03125 0 Z M 28.03125 -6.09375 "/></g></g></g><g fill="#ffffff" fill-opacity="1"><g transform="translate(37.606803, 55.843559)"><g><path d="M 28.03125 -6.09375 L 11.046875 -6.09375 C 9.59375 -6.09375 8.671875 -6.140625 8.671875 -7.65625 L 8.671875 -18.109375 C 8.671875 -19.625 9.59375 -19.671875 11.046875 -19.671875 L 28.03125 -19.671875 L 28.03125 -25.765625 L 8.734375 -25.765625 C 5.390625 -25.765625 2.265625 -25.4375 2.265625 -20.921875 L 2.265625 -4.84375 C 2.265625 -0.328125 5.390625 0 8.734375 0 L 28.03125 0 Z M 28.03125 -6.09375 "/></g></g></g></svg>